<svg width="64" height="64" viewBox="0 0 64 64" fill="none" xmlns="http://www.w3.org/2000/svg">
<rect width="64" height="64" fill="#1E1E1E"/>
<path d="M-2997 -1483C-2997 -1484.1 -2996.1 -1485 -2995 -1485H14353C14354.1 -1485 14355 -1484.1 14355 -1483V8593C14355 8594.1 14354.1 8595 14353 8595H-2995C-2996.1 8595 -2997 8594.1 -2997 8593V-1483Z" fill="#444444"/>
<path d="M-2995 -1484H14353V-1486H-2995V-1484ZM14354 -1483V8593H14356V-1483H14354ZM14353 8594H-2995V8596H14353V8594ZM-2996 8593V-1483H-2998V8593H-2996ZM-2995 8594C-2995.55 8594 -2996 8593.55 -2996 8593H-2998C-2998 8594.66 -2996.66 8596 -2995 8596V8594ZM14354 8593C14354 8593.55 14353.6 8594 14353 8594V8596C14354.7 8596 14356 8594.66 14356 8593H14354ZM14353 -1484C14353.6 -1484 14354 -1483.55 14354 -1483H14356C14356 -1484.66 14354.7 -1486 14353 -1486V-1484ZM-2995 -1486C-2996.66 -1486 -2998 -1484.66 -2998 -1483H-2996C-2996 -1483.55 -2995.55 -1484 -2995 -1484V-1486Z" fill="white" fill-opacity="0.1"/>
<g clip-path="url(#clip0_0_1)">
<rect width="1512" height="3717" transform="translate(-92 -692)" fill="white"/>
<rect x="-12" y="-12" width="296" height="88" rx="44" fill="#F3F3F3"/>
<circle cx="32" cy="32" r="32" fill="#E1E1E1"/>
<g clip-path="url(#clip1_0_1)">
<path d="M37.0171 46.8346C37.0171 45.5418 36.5035 44.3019 35.5893 43.3877C34.6751 42.4735 33.4352 41.96 32.1424 41.96C30.8496 41.96 29.6097 42.4735 28.6955 43.3877C27.7813 44.3019 27.2677 45.5418 27.2677 46.8346M46.5717 43.216C46.5721 42.3001 46.3086 41.4035 45.8127 40.6334C45.3169 39.8634 44.6097 39.2525 43.7757 38.8739C42.9418 38.4952 42.0164 38.3648 41.1103 38.4983C40.2042 38.6318 39.3557 39.0236 38.6664 39.6266M17.4277 43.216C17.4274 42.3001 17.6909 41.4035 18.1867 40.6334C18.6826 39.8634 19.3898 39.2525 20.2238 38.8739C21.0577 38.4952 21.9831 38.3648 22.8892 38.4983C23.7953 38.6318 24.6438 39.0236 25.3331 39.6266M31.9997 28.168C32.525 28.168 33.0452 28.0645 33.5305 27.8635C34.0158 27.6625 34.4567 27.3678 34.8282 26.9964M31.9997 28.168C30.9389 28.168 29.9215 27.7465 29.1713 26.9964M31.9997 28.168V31.168M34.8282 26.9964C35.1996 26.625 35.4942 26.184 35.6953 25.6987C35.8963 25.2134 35.9997 24.6933 35.9997 24.168M34.8282 26.9964L36.9491 29.1173M35.9997 24.168C35.9997 23.6427 35.8963 23.1225 35.6953 22.6372C35.4942 22.1519 35.1996 21.711 34.8282 21.3395M35.9997 24.168H38.9997M34.8282 21.3395C34.4567 20.9681 34.0158 20.6735 33.5305 20.4725C33.0452 20.2714 32.525 20.168 31.9997 20.168M34.8282 21.3395L36.9491 19.2186M31.9997 20.168C30.9389 20.168 29.9215 20.5894 29.1713 21.3395M31.9997 20.168V17.168M29.1713 21.3395C28.4212 22.0897 27.9997 23.1071 27.9997 24.168M29.1713 21.3395L27.0504 19.2186M27.9997 24.168C27.9997 25.2288 28.4212 26.2463 29.1713 26.9964M27.9997 24.168H24.9997M29.1713 26.9964L27.0504 29.1173M31.3331 17.168H32.6664M36.4784 18.7466L37.4211 19.6893M38.9997 23.5013V24.8346M37.4211 28.6466L36.4784 29.5893M32.6664 31.168H31.3331M27.5211 29.5893L26.5784 28.6466M24.9997 24.8346V23.5013M26.5784 19.6893L27.5211 18.7466M32.1424 40.336C32.5036 40.336 32.8613 40.2648 33.195 40.1266C33.5288 39.9884 33.832 39.7857 34.0874 39.5303C34.3428 39.2749 34.5455 38.9717 34.6837 38.6379C34.8219 38.3042 34.8931 37.9465 34.8931 37.5853C34.8931 37.2241 34.8219 36.8664 34.6837 36.5327C34.5455 36.1989 34.3428 35.8957 34.0874 35.6403C33.832 35.3849 33.5288 35.1823 33.195 35.044C32.8613 34.9058 32.5036 34.8346 32.1424 34.8346C31.4129 34.8346 30.7132 35.1244 30.1974 35.6403C29.6815 36.1561 29.3917 36.8558 29.3917 37.5853C29.3917 38.3148 29.6815 39.0145 30.1974 39.5303C30.7132 40.0462 31.4129 40.336 32.1424 40.336ZM41.8037 36.86C42.517 36.86 43.201 36.5766 43.7054 36.0723C44.2097 35.5679 44.4931 34.8839 44.4931 34.1706C44.4931 33.4574 44.2097 32.7733 43.7054 32.269C43.201 31.7646 42.517 31.4813 41.8037 31.4813C41.0905 31.4813 40.4064 31.7646 39.9021 32.269C39.3977 32.7733 39.1144 33.4574 39.1144 34.1706C39.1144 34.8839 39.3977 35.5679 39.9021 36.0723C40.4064 36.5766 41.0905 36.86 41.8037 36.86ZM22.1957 36.86C22.909 36.86 23.593 36.5766 24.0974 36.0723C24.6017 35.5679 24.8851 34.8839 24.8851 34.1706C24.8851 33.4574 24.6017 32.7733 24.0974 32.269C23.593 31.7646 22.909 31.4813 22.1957 31.4813C21.4825 31.4813 20.7984 31.7646 20.2941 32.269C19.7897 32.7733 19.5064 33.4574 19.5064 34.1706C19.5064 34.8839 19.7897 35.5679 20.2941 36.0723C20.7984 36.5766 21.4825 36.86 22.1957 36.86Z" stroke="black" stroke-width="2" stroke-linecap="round" stroke-linejoin="round"/>
</g>
</g>
<defs>
<clipPath id="clip0_0_1">
<rect width="1512" height="3717" fill="white" transform="translate(-92 -692)"/>
</clipPath>
<clipPath id="clip1_0_1">
<rect width="32" height="32" fill="white" transform="translate(16 16)"/>
</clipPath>
</defs>
</svg>
