<svg width="101" height="93" viewBox="0 0 101 93" fill="none" xmlns="http://www.w3.org/2000/svg">
<g clip-path="url(#clip0_938_663)">
<path d="M3.7733 30.3195C4.96755 29.1527 5.9371 27.8037 7.21972 26.8342C9.0822 25.4556 11.0945 24.1985 13.2835 23.3359C26.7383 17.9177 40.5758 17.0799 53.7442 22.7327C67.1373 28.5676 75.5076 39.3728 77.7317 54.2373C78.8811 61.7 78.3062 69.146 76.5521 76.5153C76.2028 77.8647 75.915 79.1384 75.4487 81.3978C78.2041 79.9896 80.3048 78.9298 82.4669 77.7941C82.6301 78.0521 82.8548 78.2343 83.093 78.553C82.7378 79.1441 82.5325 79.8568 82.0275 80.3265C79.6525 82.7966 77.2025 85.2059 74.7526 87.6153C73.1148 89.176 71.4905 90.8732 69.0035 90.1129C66.3803 89.3675 65.654 86.8949 65.4252 84.5743C65.177 81.3589 65.2629 78.0376 65.4237 74.777C65.4927 74.0795 66.4682 73.4888 67.0211 72.8068C67.6952 73.3533 68.7034 73.794 68.9071 74.4615C69.4566 76.5397 69.5971 78.663 69.8874 80.9078C70.1466 80.7412 70.4193 80.7111 70.4058 80.5746C78.08 59.1666 74.1442 39.5233 55.6537 27.4206C54.7684 26.8283 53.8216 26.3119 52.7519 25.947C38.2816 20.369 23.9811 20.7059 9.84296 27.5795C8.00152 28.4728 6.35028 29.897 4.61067 31.124C4.31106 30.8811 4.0729 30.5624 3.7733 30.3195Z" fill="black"/>
</g>
<defs>
<clipPath id="clip0_938_663">
<rect width="92.2987" height="44.722" fill="white" transform="translate(28.3281 0.0332031) rotate(39.0337)"/>
</clipPath>
</defs>
</svg>
