<svg width="42" height="44" viewBox="0 0 42 44" fill="none" xmlns="http://www.w3.org/2000/svg">
<path d="M18.84 1.7359C19.0601 1.35822 19.3753 1.04485 19.7543 0.827047C20.1333 0.609246 20.5628 0.494629 21 0.494629C21.4371 0.494629 21.8666 0.609246 22.2456 0.827047C22.6246 1.04485 22.9399 1.35822 23.16 1.7359L28.75 11.3319L39.606 13.6839C40.033 13.7767 40.4282 13.9798 40.7523 14.273C41.0764 14.5661 41.3179 14.9391 41.4529 15.3547C41.5878 15.7704 41.6115 16.2141 41.5215 16.6417C41.4315 17.0694 41.231 17.4659 40.94 17.7919L33.54 26.0739L34.66 37.1239C34.7042 37.559 34.6334 37.9981 34.4548 38.3973C34.2762 38.7966 33.996 39.1419 33.6422 39.399C33.2884 39.6561 32.8733 39.8158 32.4385 39.8623C32.0036 39.9088 31.5641 39.8404 31.164 39.6639L21 35.1839L10.836 39.6639C10.4358 39.8404 9.99635 39.9088 9.56148 39.8623C9.12661 39.8158 8.71154 39.6561 8.35771 39.399C8.00389 39.1419 7.7237 38.7966 7.54511 38.3973C7.36652 37.9981 7.29579 37.559 7.33997 37.1239L8.45997 26.0739L1.05997 17.7939C0.768426 17.468 0.567481 17.0712 0.477198 16.6433C0.386914 16.2154 0.410451 15.7714 0.545457 15.3554C0.680464 14.9395 0.922217 14.5662 1.24658 14.2729C1.57095 13.9796 1.96658 13.7765 2.39397 13.6839L13.25 11.3319L18.84 1.7359Z" fill="black"/>
</svg>
