<svg width="88" height="88" viewBox="0 0 88 88" fill="none" xmlns="http://www.w3.org/2000/svg">
<path d="M29.7783 37.5797C29.7783 34.4191 30.9894 32.0093 33.4116 30.3505C35.8339 28.6917 39.3309 27.8623 43.9028 27.8623C48.1212 27.8623 51.409 28.695 53.766 30.3603C56.123 32.0256 57.302 34.346 57.3025 37.3216C57.3025 40.4953 56.1205 42.9213 53.7565 44.5996C51.392 46.278 48.0161 47.118 43.6283 47.1196C39.24 47.1196 35.8344 46.2937 33.4116 44.642C30.9889 42.9903 29.7778 40.6362 29.7783 37.5797ZM51.3665 37.3639C51.3665 35.2219 48.8526 34.1508 43.8246 34.1508C40.5852 34.1508 38.4236 34.4223 37.3398 34.9653C36.256 35.5083 35.7131 36.2956 35.7109 37.3273C35.7109 38.4371 36.2539 39.2893 37.3398 39.8839C38.4258 40.4784 40.548 40.7754 43.7065 40.7749C48.8132 40.7733 51.3665 39.6363 51.3665 37.3639Z" fill="#18C4B8"/>
<path d="M56.577 49.5V55.436H36.4778V60.138H30.4238V49.5H56.577Z" fill="#18C4B8"/>
<path d="M60.1426 31.4824H65.6866C69.5261 31.4824 72.4451 32.5763 74.4431 34.7639C76.4411 36.9516 77.4401 40.1481 77.4401 44.3535C77.4401 47.5408 76.9471 50.1135 75.9611 52.072C74.9751 54.0305 73.5976 55.448 71.8276 56.3235C70.0581 57.1985 68.1036 57.636 65.9636 57.636H60.1426V31.4824ZM66.0786 37.0461V52.0525C67.8811 51.896 69.1546 51.2595 69.8986 50.1425C70.6421 49.0258 71.0146 47.1876 71.0151 44.628C71.0151 43.1131 70.8846 41.8297 70.6231 40.778C70.3621 39.7262 69.9736 38.9166 69.4576 38.3492C68.9416 37.7807 68.4386 37.4313 67.9496 37.301C67.3361 37.1534 66.7091 37.068 66.0786 37.0461Z" fill="#18C4B8"/>
<path d="M10.5596 31.4824H16.5932C20.1057 31.4824 22.6327 32.1715 24.1742 33.5496C25.7158 34.9276 26.4873 36.6809 26.489 38.8094C26.489 41.1089 25.3658 42.9569 23.1195 44.3535C25.6655 45.3591 26.9388 47.2725 26.9394 50.094C26.9394 52.353 26.1491 54.175 24.5684 55.559C22.9878 56.943 20.905 57.6355 18.3198 57.636H10.5596V31.4824ZM16.4954 36.4979V42.1398C19.1463 42.0746 20.4717 41.154 20.4717 39.3779C20.4717 38.3196 20.1551 37.5817 19.522 37.1642C18.8889 36.7466 17.88 36.5245 16.4954 36.4979ZM16.4954 46.8808V52.542C17.9962 52.516 19.1226 52.284 19.8747 51.8465C20.6267 51.409 21.0022 50.6875 21.0011 49.6826C21.0011 47.8152 19.6624 46.8813 16.9849 46.8808H16.4954Z" fill="#18C4B8"/>
</svg>
