<svg width="61" height="61" viewBox="0 0 61 61" fill="none" xmlns="http://www.w3.org/2000/svg">
<rect width="61" height="61" fill="#1E1E1E"/>
<path d="M-13299 -3678C-13299 -3679.1 -13298.1 -3680 -13297 -3680H11310C11311.1 -3680 11312 -3679.1 11312 -3678V9696C11312 9697.1 11311.1 9698 11310 9698H-13297C-13298.1 9698 -13299 9697.1 -13299 9696V-3678Z" fill="#444444"/>
<path d="M-13297 -3679H11310V-3681H-13297V-3679ZM11311 -3678V9696H11313V-3678H11311ZM11310 9697H-13297V9699H11310V9697ZM-13298 9696V-3678H-13300V9696H-13298ZM-13297 9697C-13297.6 9697 -13298 9696.55 -13298 9696H-13300C-13300 9697.66 -13298.7 9699 -13297 9699V9697ZM11311 9696C11311 9696.55 11310.6 9697 11310 9697V9699C11311.7 9699 11313 9697.66 11313 9696H11311ZM11310 -3679C11310.6 -3679 11311 -3678.55 11311 -3678H11313C11313 -3679.66 11311.7 -3681 11310 -3681V-3679ZM-13297 -3681C-13298.7 -3681 -13300 -3679.66 -13300 -3678H-13298C-13298 -3678.55 -13297.6 -3679 -13297 -3679V-3681Z" fill="white" fill-opacity="0.1"/>
<g clip-path="url(#clip0_0_1)">
<rect width="1512" height="4807" transform="translate(-362 -2558)" fill="white"/>
<rect x="-298" y="34" width="664" height="200" rx="16" fill="#F3F3F3"/>
<circle cx="36.5" cy="37.5" r="30.5" fill="#18C4B8"/>
<circle cx="30.5" cy="30.5" r="28.5" stroke="url(#paint0_linear_0_1)" stroke-width="4"/>
<path fill-rule="evenodd" clip-rule="evenodd" d="M26.7392 42.6579C24.5466 40.2519 23.2132 37.0759 23.2132 33.5932C23.2132 26.0839 29.4112 19.9966 37.0566 19.9966C44.7019 19.9966 50.8999 26.0846 50.8999 33.5932C50.8999 38.9032 47.7999 43.4999 43.2819 45.7386C40.4207 47.2273 37.2419 48.002 34.0166 47.9966C29.9152 47.9966 26.1046 46.7706 22.9446 44.6719C22.9446 44.6719 25.0639 44.4406 26.7379 42.6572L26.7392 42.6579ZM43.5592 40.3232C47.1412 36.7426 47.1412 30.9366 43.5592 27.3546C41.9664 25.757 39.8386 24.8054 37.5859 24.6832C37.5206 23.0519 38.3986 21.9506 38.4026 21.9452V21.9446C35.8177 22.4426 33.442 23.7059 31.5839 25.5706C30.1483 27.0012 29.0634 28.7447 28.4139 30.6646C28.5059 30.4201 28.6088 30.1792 28.7226 29.9419C28.5924 30.2752 28.4739 30.6157 28.3672 30.9632C27.3186 34.1472 28.0586 37.7913 30.5906 40.3232C34.1719 43.9046 39.9779 43.9046 43.5592 40.3232Z" fill="#F0F0F0"/>
<path fill-rule="evenodd" clip-rule="evenodd" d="M32.4199 32.8965V34.7945C32.4199 35.1582 32.5644 35.507 32.8216 35.7642C33.0788 36.0213 33.4276 36.1658 33.7913 36.1658C34.155 36.1658 34.5038 36.0213 34.7609 35.7642C35.0181 35.507 35.1626 35.1582 35.1626 34.7945V32.8965C35.1626 32.5328 35.0181 32.184 34.7609 31.9268C34.5038 31.6696 34.155 31.5251 33.7913 31.5251C33.4276 31.5251 33.0788 31.6696 32.8216 31.9268C32.5644 32.184 32.4199 32.5328 32.4199 32.8965ZM39.2086 32.8965V34.7945C39.2086 35.1582 39.3531 35.507 39.6102 35.7642C39.8674 36.0213 40.2162 36.1658 40.5799 36.1658C40.9436 36.1658 41.2924 36.0213 41.5496 35.7642C41.8068 35.507 41.9513 35.1582 41.9513 34.7945V32.8965C41.9513 32.5328 41.8068 32.184 41.5496 31.9268C41.2924 31.6696 40.9436 31.5251 40.5799 31.5251C40.2162 31.5251 39.8674 31.6696 39.6102 31.9268C39.3531 32.184 39.2086 32.5328 39.2086 32.8965Z" fill="#F0F0F0"/>
</g>
<defs>
<linearGradient id="paint0_linear_0_1" x1="18.5179" y1="9.25893" x2="70.8036" y2="71.8929" gradientUnits="userSpaceOnUse">
<stop stop-color="#18C4B8"/>
<stop offset="0.343811" stop-color="#C7E2E9"/>
<stop offset="1" stop-color="#1235B1"/>
</linearGradient>
<clipPath id="clip0_0_1">
<rect width="1512" height="4807" fill="white" transform="translate(-362 -2558)"/>
</clipPath>
</defs>
</svg>
