<svg width="42" height="74" viewBox="0 0 42 74" fill="none" xmlns="http://www.w3.org/2000/svg">
<path d="M5.95743 65.5966C6.23511 65.7806 6.29482 65.8992 6.41914 65.9457C15.5862 67.0165 24.4298 64.8072 32.6564 58.5344C34.7368 56.9551 36.4525 54.9186 37.7678 52.588C40.6262 47.6112 40.2358 42.0608 36.812 38.5353C35.0395 36.6857 32.973 35.2875 30.2182 35.027C29.1586 35.9618 28.1296 36.924 27.0732 37.7317C25.3448 39.0418 23.4762 39.7061 21.5079 39.3709C20.0385 39.1582 19.1183 38.3329 19.1445 37.3164C19.1789 35.9822 20.0835 34.9734 21.2254 34.5024C22.8114 33.8447 24.4555 33.369 26.0656 32.9929C27.1072 32.757 28.2053 32.7668 29.2421 32.7215C32.3716 28.1828 30.6405 23.5103 25.196 21.6826C24.5563 22.149 23.8844 22.6515 23.214 23.0904C20.6943 24.6658 18.1056 25.2692 15.5867 24.3754C14.6228 24.0309 13.7591 23.4513 13.8241 22.1446C13.881 21.1556 14.7856 20.1468 16.1811 19.5782C18.4002 18.7082 20.598 18.6641 22.7586 18.8467C23.5094 18.9351 24.2603 19.0234 24.9788 19.1478C30.0196 12.293 29.2104 3.507 22.2252 1.79278C22.6759 1.35193 23.0006 0.928129 23.3172 0.821996C23.6967 0.707344 24.1633 0.865816 24.504 1.04133C27.6281 2.80301 29.7281 5.33635 29.7186 9.35798C29.7353 12.3631 28.9382 15.2883 27.5452 18.1992C27.3464 18.606 27.1476 19.0127 26.9795 19.447C26.9472 19.483 26.9762 19.5741 27.002 19.7922C27.3104 20.0037 27.6478 20.3063 28.0498 20.5368C32.8383 23.4662 33.8222 26.6887 31.6852 32.8975C32.1825 33.0835 32.7412 33.3245 33.3015 33.5019C36.5033 34.6833 38.9297 36.7293 40.482 39.8116C43.0204 44.8181 42.0138 51.0006 37.8311 56.2199C35.5613 59.0595 32.8363 61.2958 29.7465 63.075C22.2618 67.3481 14.6521 69.1689 6.87224 67.8471C6.46532 67.8071 6.06003 67.7037 5.6531 67.6638C5.59012 67.6723 5.49483 67.7168 5.20896 67.8505C5.99333 69.0739 7.07178 69.8461 8.11791 70.6543C9.10106 71.471 10.1795 72.2431 11.287 73.1063C10.3549 73.9605 9.60239 73.9356 8.88711 73.6842C8.07981 73.3502 7.20789 73.0883 6.56214 72.5742C4.84122 71.1608 3.12194 69.684 1.5319 68.063C0.309932 66.7721 0.684983 65.6134 2.39858 64.8751C6.04704 63.3369 9.72617 61.8262 13.4053 60.3155C14.0077 60.0757 14.6069 59.963 15.3966 59.7612C15.2686 61.0765 14.5062 61.4328 13.8069 61.7807C11.2033 62.9559 8.69183 64.2137 5.95743 65.5966ZM15.7136 21.889C18.1207 23.4628 20.8612 23.0604 22.9564 20.9093C20.5762 20.7247 18.3543 20.4871 15.7136 21.889ZM21.0728 36.7706C23.3348 37.8892 25.486 37.2183 27.2728 34.8556C25.0734 34.9632 23.0919 35.1363 21.0728 36.7706Z" fill="black"/>
</svg>
