<svg width="48" height="48" viewBox="0 0 48 48" fill="none" xmlns="http://www.w3.org/2000/svg">
<path d="M27.9741 23.25C28.0479 23.25 28.1202 23.2283 28.1817 23.1874C28.2433 23.1466 28.2914 23.0885 28.3201 23.0204C28.3487 22.9523 28.3566 22.8772 28.3427 22.8047C28.3289 22.7321 28.2939 22.6652 28.2422 22.6125L20.8922 15.1387C20.84 15.0857 20.7731 15.0494 20.7002 15.0345C20.6273 15.0195 20.5515 15.0267 20.4827 15.0549C20.4138 15.0832 20.3549 15.1313 20.3135 15.1931C20.272 15.255 20.2499 15.3277 20.25 15.4022V22.125C20.25 22.4233 20.3685 22.7095 20.5795 22.9205C20.7905 23.1315 21.0766 23.25 21.375 23.25H27.9741Z" fill="black"/>
<path d="M18.4688 25.0312C18.0837 24.6513 17.7777 24.1989 17.5685 23.7001C17.3593 23.2012 17.2511 22.6659 17.25 22.125V13.5H10.5C8.91015 13.5047 7.38675 14.1383 6.26255 15.2625C5.13835 16.3867 4.5047 17.9101 4.5 19.5V40.5C4.5 42.0913 5.13214 43.6174 6.25736 44.7426C7.38258 45.8678 8.9087 46.5 10.5 46.5H24C25.5913 46.5 27.1174 45.8678 28.2426 44.7426C29.3679 43.6174 30 42.0913 30 40.5V26.25H21.375C20.834 26.2493 20.2986 26.1412 19.7997 25.932C19.3008 25.7227 18.8484 25.4166 18.4688 25.0312ZM34.875 11.25H41.4741C41.5479 11.25 41.6202 11.2283 41.6817 11.1874C41.7433 11.1466 41.7914 11.0885 41.8201 11.0204C41.8487 10.9523 41.8566 10.8772 41.8427 10.8047C41.8289 10.7321 41.7939 10.6652 41.7422 10.6125L34.3922 3.13873C34.34 3.08569 34.2731 3.0494 34.2002 3.03447C34.1273 3.01955 34.0515 3.02666 33.9827 3.05491C33.9138 3.08316 33.8549 3.13127 33.8135 3.19311C33.772 3.25495 33.7499 3.32773 33.75 3.40217V10.125C33.75 10.4233 33.8685 10.7095 34.0795 10.9205C34.2905 11.1315 34.5766 11.25 34.875 11.25Z" fill="black"/>
<path d="M34.875 14.25C33.7836 14.2417 32.7392 13.8044 31.9674 13.0326C31.1956 12.2608 30.7583 11.2164 30.75 10.125V1.5H20.625C19.1337 1.50174 17.704 2.09493 16.6494 3.14944C15.5949 4.20396 15.0017 5.63369 15 7.125V10.5H18.9487C19.4528 10.502 19.9514 10.6035 20.4161 10.7988C20.8807 10.9942 21.3022 11.2794 21.6562 11.6381L31.89 22.0444C32.604 22.7687 33.0027 23.746 32.9991 24.7631V37.5H37.9725C41.0203 37.5 43.4991 34.9762 43.4991 31.875V14.25H34.875Z" fill="black"/>
</svg>
