<svg width="35" height="23" viewBox="0 0 35 23" fill="none" xmlns="http://www.w3.org/2000/svg">
<path d="M4.02 22.58L0.94 18.8C2.76 17.9133 4.20667 16.8167 5.28 15.51C6.4 14.25 6.96 13.1767 6.96 12.29C6.96 11.8233 6.84333 11.3567 6.61 10.89C6.37667 10.47 5.88667 9.91 5.14 9.21C4.11333 8.37 3.41333 7.6 3.04 6.9C2.66667 6.15333 2.48 5.36 2.48 4.52C2.48 3.16667 2.97 2.11667 3.95 1.37C4.93 0.576666 6.19 0.18 7.73 0.18C9.03667 0.18 10.2033 0.553333 11.23 1.3C12.3033 2 13.1433 3.00333 13.75 4.31C14.3567 5.57 14.66 7.04 14.66 8.72C14.66 10.2133 14.38 11.66 13.82 13.06C13.3067 14.5067 12.56 15.86 11.58 17.12C10.6467 18.38 9.52667 19.4767 8.22 20.41C6.96 21.3433 5.56 22.0667 4.02 22.58ZM23.7075 22.58L20.6275 18.8C22.4475 17.9133 23.8942 16.8167 24.9675 15.51C26.0875 14.25 26.6475 13.1767 26.6475 12.29C26.6475 11.8233 26.5308 11.3567 26.2975 10.89C26.0642 10.47 25.5742 9.91 24.8275 9.21C23.8008 8.37 23.1008 7.6 22.7275 6.9C22.3542 6.15333 22.1675 5.36 22.1675 4.52C22.1675 3.16667 22.6575 2.11667 23.6375 1.37C24.6175 0.576666 25.8775 0.18 27.4175 0.18C28.7242 0.18 29.8908 0.553333 30.9175 1.3C31.9908 2 32.8308 3.00333 33.4375 4.31C34.0442 5.57 34.3475 7.04 34.3475 8.72C34.3475 10.2133 34.0675 11.66 33.5075 13.06C32.9942 14.5067 32.2475 15.86 31.2675 17.12C30.3342 18.38 29.2142 19.4767 27.9075 20.41C26.6475 21.3433 25.2475 22.0667 23.7075 22.58Z" fill="#C8C8C8"/>
</svg>
