<svg width="40" height="40" viewBox="0 0 40 40" fill="none" xmlns="http://www.w3.org/2000/svg">
<g clip-path="url(#clip0_938_647)">
<path d="M40 29.9991C40 31.1779 39.5317 32.3083 38.6983 33.1418C37.8648 33.9753 36.7343 34.4436 35.5556 34.4436H4.44444C3.2657 34.4436 2.13524 33.9753 1.30175 33.1418C0.468253 32.3083 0 31.1779 0 29.9991V9.99913C0 8.82039 0.468253 7.68993 1.30175 6.85643C2.13524 6.02294 3.2657 5.55469 4.44444 5.55469H35.5556C36.7343 5.55469 37.8648 6.02294 38.6983 6.85643C39.5317 7.68993 40 8.82039 40 9.99913V29.9991Z" fill="#006600"/>
<path d="M35.5569 5.55469H16.668V34.4436H35.5569C36.7356 34.4436 37.8661 33.9753 38.6996 33.1418C39.5331 32.3083 40.0013 31.1779 40.0013 29.9991V9.99913C40.0013 8.82039 39.5331 7.68993 38.6996 6.85643C37.8661 6.02294 36.7356 5.55469 35.5569 5.55469Z" fill="#D52B1E"/>
<path d="M16.6662 11.1113C14.3088 11.1113 12.0478 12.0478 10.3808 13.7148C8.71385 15.3818 7.77734 17.6427 7.77734 20.0002C7.77734 22.3577 8.71385 24.6186 10.3808 26.2856C12.0478 27.9526 14.3088 28.8891 16.6662 28.8891C19.0237 28.8891 21.2846 27.9526 22.9516 26.2856C24.6186 24.6186 25.5551 22.3577 25.5551 20.0002C25.5551 17.6427 24.6186 15.3818 22.9516 13.7148C21.2846 12.0478 19.0237 11.1113 16.6662 11.1113ZM9.87401 16.2158L11.654 17.9958L8.92068 19.3624C9.00889 18.2573 9.33403 17.1841 9.87401 16.2158ZM8.92068 20.6369L13.8096 23.0891L10.8029 25.0935L10.8185 25.1169C9.72034 23.8666 9.0548 22.2955 8.92068 20.6369ZM15.5551 27.6891C14.5366 27.5436 13.5574 27.1961 12.6751 26.6669H15.5551V27.6891ZM15.5551 25.5558H12.1118L15.5551 23.2602V25.5558ZM15.5551 21.9247L14.8807 22.3747L10.1307 20.0002L12.4818 18.8247L15.5551 21.8969V21.9247ZM15.5551 20.3258L11.6185 16.3891L15.5551 17.0447V20.3258ZM15.5551 15.8902L10.6307 15.098C11.8626 13.5821 13.6213 12.5869 15.5551 12.3113V15.8902ZM23.4585 16.2158C23.9986 17.1844 24.3237 18.258 24.4118 19.3636L21.6785 17.9969L23.4585 16.2158ZM17.7773 12.3113C19.7105 12.589 21.4684 13.5838 22.7018 15.098L17.7773 15.8902V12.3113ZM17.7773 17.0447L21.714 16.388L17.7773 20.3258V17.0447ZM17.7773 21.8969L20.8496 18.8247L23.2018 20.0002L18.4529 22.3747L17.7773 21.9247V21.8969ZM17.7773 27.6891V26.6669H20.6573C19.775 27.1961 18.7959 27.5436 17.7773 27.6891ZM17.7773 25.5558V23.2602L21.2207 25.5558H17.7773ZM22.5151 25.1169L22.5307 25.0935L19.524 23.0891L24.4129 20.6369C24.2772 22.2951 23.6119 23.8658 22.5151 25.1169Z" fill="#FFCC4D"/>
<path d="M12.2227 14.4453V22.2231C12.2227 23.4018 12.6909 24.5323 13.5244 25.3658C14.3579 26.1993 15.4884 26.6675 16.6671 26.6675C17.8458 26.6675 18.9763 26.1993 19.8098 25.3658C20.6433 24.5323 21.1115 23.4018 21.1115 22.2231V14.4453H12.2227Z" fill="#D52B1E"/>
<path d="M13.332 15.5547V22.2214C13.332 23.1054 13.6832 23.9533 14.3083 24.5784C14.9335 25.2035 15.7813 25.5547 16.6654 25.5547C17.5494 25.5547 18.3973 25.2035 19.0224 24.5784C19.6475 23.9533 19.9987 23.1054 19.9987 22.2214V15.5547H13.332Z" fill="white"/>
<path d="M14.4453 18.8887H18.8898V21.1109H14.4453V18.8887Z" fill="#829ACD"/>
<path d="M15.5547 17.7773H17.7769V22.2218H15.5547V17.7773Z" fill="#829ACD"/>
<path d="M13.332 18.888H14.4431V21.1102H13.332V18.888ZM15.5543 18.888H17.7765V21.1102H15.5543V18.888ZM18.8876 18.888H19.9987V21.1102H18.8876V18.888ZM15.5543 22.2214H17.7765V24.4436H15.5543V22.2214ZM15.5543 15.5547H17.7765V17.7769H15.5543V15.5547Z" fill="#003399"/>
</g>
<defs>
<clipPath id="clip0_938_647">
<rect width="40" height="40" fill="white"/>
</clipPath>
</defs>
</svg>
