<svg width="80" height="80" viewBox="0 0 80 80" fill="none" xmlns="http://www.w3.org/2000/svg">
<g filter="url(#filter0_b_923_1260)">
<rect width="80" height="80" rx="16" fill="#18C460" fill-opacity="0.2"/>
<path fill-rule="evenodd" clip-rule="evenodd" d="M31 25.5C31 25.063 35.516 22 40 22C44.484 22 49 25.063 49 25.5C49 27.06 48.834 27.984 48.694 28.487C48.601 28.817 48.292 29 47.949 29H32.051C31.708 29 31.399 28.817 31.306 28.487C31.166 27.984 31 27.06 31 25.5ZM38.5 25C38.2348 25 37.9805 25.1054 37.7929 25.2929C37.6054 25.4804 37.5 25.7348 37.5 26C37.5 26.2652 37.6054 26.5196 37.7929 26.7071C37.9805 26.8946 38.2348 27 38.5 27H41.5C41.7653 27 42.0196 26.8946 42.2071 26.7071C42.3947 26.5196 42.5 26.2652 42.5 26C42.5 25.7348 42.3947 25.4804 42.2071 25.2929C42.0196 25.1054 41.7653 25 41.5 25H38.5ZM32.038 35.218C28.708 34.188 29.548 32.348 30.818 31H49.46C50.476 32.298 51.021 34.049 47.95 35.097C47.9834 35.3937 48 35.6947 48 36C47.9996 37.0833 47.7792 38.1552 47.3521 39.1507C46.925 40.1462 46.3003 41.0447 45.5156 41.7915C44.7309 42.5384 43.8028 43.1181 42.7874 43.4955C41.772 43.8729 40.6905 44.0402 39.6086 43.9872C38.5266 43.9342 37.4667 43.662 36.493 43.1871C35.5194 42.7123 34.6524 42.0446 33.9445 41.2246C33.2366 40.4047 32.7026 39.4495 32.3749 38.4169C32.0472 37.3844 31.9326 36.2961 32.038 35.218ZM39.728 36C42.37 36 44.418 35.86 45.988 35.616C45.996 35.7427 46 35.8707 46 36C45.9993 36.8007 45.8383 37.5932 45.5266 38.3308C45.2148 39.0684 44.7585 39.736 44.1847 40.2945C43.6109 40.853 42.931 41.291 42.1853 41.5826C41.4395 41.8742 40.643 42.0136 39.8425 41.9926C39.042 41.9716 38.2539 41.7906 37.5244 41.4602C36.795 41.1298 36.1391 40.6567 35.5954 40.0689C35.0517 39.4811 34.6311 38.7904 34.3585 38.0374C34.0859 37.2845 33.9667 36.4847 34.008 35.685C35.471 35.887 37.346 36 39.728 36ZM48.417 50.6C47.5126 49.1887 46.2676 48.0276 44.7967 47.2237C43.3258 46.4199 41.6763 45.999 40 46C38.3231 45.9987 36.6728 46.4196 35.2013 47.2239C33.7298 48.0281 32.4845 49.1899 31.58 50.602C31.2436 50.0856 30.7283 49.7117 30.133 49.552L28.201 49.035C27.5607 48.8633 26.8783 48.953 26.3041 49.2844C25.7299 49.6158 25.3108 50.1617 25.139 50.802L24.363 53.7C24.278 54.0171 24.2564 54.3479 24.2992 54.6734C24.3421 54.999 24.4486 55.3129 24.6128 55.5972C24.777 55.8815 24.9956 56.1307 25.2561 56.3306C25.5166 56.5305 25.8139 56.6771 26.131 56.762L28.062 57.28C28.3869 57.367 28.726 57.3876 29.059 57.3405C29.392 57.2935 29.712 57.1797 30 57.006C30.0008 57.2712 30.107 57.5253 30.2951 57.7122C30.4832 57.8992 30.7378 58.0038 31.003 58.003C31.2683 58.0022 31.5223 57.8961 31.7093 57.708C31.8962 57.5199 32.0008 57.2652 32 57V56C32 55.6187 32.026 55.2443 32.078 54.877L37.282 56.272C37.5236 56.789 37.9076 57.2265 38.3891 57.5329C38.8705 57.8394 39.4293 58.0022 40 58.0022C40.5707 58.0022 41.1296 57.8394 41.611 57.5329C42.0924 57.2265 42.4765 56.789 42.718 56.272L47.922 54.877C47.9734 55.2443 47.9994 55.6187 48 56V57C47.9987 57.2652 48.1028 57.5201 48.2894 57.7086C48.476 57.897 48.7298 58.0037 48.995 58.005C49.2603 58.0063 49.5151 57.9022 49.7036 57.7156C49.8921 57.529 49.9987 57.2752 50 57.01C50.56 57.346 51.252 57.463 51.933 57.28L53.865 56.763C54.1822 56.6781 54.4795 56.5315 54.74 56.3316C55.0005 56.1317 55.2191 55.8825 55.3833 55.5982C55.5474 55.3139 55.654 55 55.6969 54.6744C55.7397 54.3489 55.718 54.0181 55.633 53.701L54.856 50.803C54.6843 50.1627 54.2652 49.6168 53.691 49.2854C53.1167 48.954 52.4344 48.8643 51.794 49.036L49.862 49.553C49.2681 49.7121 48.7537 50.0855 48.417 50.6ZM32.603 52.946C33.1435 51.6399 34.0201 50.5 35.1436 49.6422C36.2671 48.7844 37.5976 48.2392 39 48.062V52.171C38.5516 52.3295 38.1473 52.5923 37.8204 52.9378C37.4935 53.2832 37.2535 53.7015 37.12 54.158L32.603 52.946ZM47.397 52.946C46.8565 51.6399 45.98 50.5 44.8565 49.6422C43.733 48.7844 42.4024 48.2392 41 48.062V52.171C41.904 52.491 42.61 53.231 42.88 54.158L47.397 52.946ZM40 56C40.2653 56 40.5196 55.8946 40.7071 55.7071C40.8947 55.5196 41 55.2652 41 55C41 54.7348 40.8947 54.4804 40.7071 54.2929C40.5196 54.1054 40.2653 54 40 54C39.7348 54 39.4805 54.1054 39.2929 54.2929C39.1054 54.4804 39 54.7348 39 55C39 55.2652 39.1054 55.5196 39.2929 55.7071C39.4805 55.8946 39.7348 56 40 56Z" fill="#097330"/>
</g>
<defs>
<filter id="filter0_b_923_1260" x="-20" y="-20" width="120" height="120" filterUnits="userSpaceOnUse" color-interpolation-filters="sRGB">
<feFlood flood-opacity="0" result="BackgroundImageFix"/>
<feGaussianBlur in="BackgroundImageFix" stdDeviation="10"/>
<feComposite in2="SourceAlpha" operator="in" result="effect1_backgroundBlur_923_1260"/>
<feBlend mode="normal" in="SourceGraphic" in2="effect1_backgroundBlur_923_1260" result="shape"/>
</filter>
</defs>
</svg>
