<svg width="168" height="168" viewBox="0 0 168 168" fill="none" xmlns="http://www.w3.org/2000/svg">
<path d="M56.8486 71.7431C56.8486 65.7091 59.1607 61.1086 63.7849 57.9418C68.4092 54.775 75.0854 53.1917 83.8136 53.1917C91.8669 53.1917 98.1435 54.7813 102.643 57.9606C107.143 61.1398 109.394 65.5696 109.395 71.2502C109.395 77.3091 107.138 81.9406 102.625 85.1447C98.1111 88.3488 91.6663 89.9524 83.2895 89.9556C74.9118 89.9556 68.4103 88.3789 63.7849 85.2256C59.1597 82.0723 56.8476 77.5781 56.8486 71.7431ZM98.0624 71.3311C98.0624 67.2417 93.2632 65.197 83.6643 65.197C77.48 65.197 73.3533 65.7153 71.2842 66.7519C69.2152 67.7885 68.1786 69.2916 68.1744 71.2611C68.1744 73.3799 69.2111 75.0068 71.2842 76.1419C73.3574 77.2769 77.409 77.8439 83.4388 77.843C93.188 77.8398 98.0624 75.6692 98.0624 71.3311Z" fill="#18C4B8"/>
<path d="M108.01 94.5V105.832H69.6386V114.809H58.0811V94.5H108.01Z" fill="#18C4B8"/>
<path d="M114.817 60.1028H125.401C132.731 60.1028 138.304 62.191 142.118 66.3675C145.933 70.5439 147.84 76.6464 147.84 84.6748C147.84 90.7596 146.899 95.6712 145.016 99.4102C143.134 103.149 140.504 105.855 137.125 107.527C133.747 109.197 130.016 110.032 125.93 110.032H114.817V60.1028ZM126.15 70.7243V99.373C129.591 99.0742 132.022 97.8591 133.442 95.7266C134.862 93.5947 135.573 90.0853 135.574 85.1988C135.574 82.3067 135.325 79.8567 134.826 77.8488C134.327 75.8409 133.586 74.2953 132.601 73.2121C131.615 72.1268 130.655 71.4598 129.722 71.211C128.55 70.9292 127.353 70.7662 126.15 70.7243Z" fill="#18C4B8"/>
<path d="M20.1592 60.1028H31.6779C38.3836 60.1028 43.2079 61.4182 46.1508 64.0492C49.0937 66.68 50.5667 70.0272 50.5699 74.0906C50.5699 78.4806 48.4257 82.0086 44.1373 84.6748C48.9978 86.5946 51.4287 90.2475 51.4297 95.634C51.4297 99.9467 49.921 103.425 46.9033 106.067C43.8858 108.709 39.9095 110.031 34.9742 110.032H20.1592V60.1028ZM31.4913 69.6778V80.4486C36.552 80.3243 39.0823 78.5667 39.0823 75.1759C39.0823 73.1556 38.478 71.7469 37.2693 70.9498C36.0606 70.1526 34.1346 69.7286 31.4913 69.6778ZM31.4913 89.4996V100.307C34.3564 100.258 36.5068 99.8149 37.9426 98.9797C39.3782 98.1445 40.0951 96.7671 40.093 94.8485C40.093 91.2836 37.5373 89.5007 32.4258 89.4996H31.4913Z" fill="#18C4B8"/>
</svg>
