<svg width="42" height="34" viewBox="0 0 42 34" fill="none" xmlns="http://www.w3.org/2000/svg">
<path d="M19.1041 21.8782H12.3232C11.9219 21.8782 11.5969 22.2031 11.5969 22.6044V33.1327C11.5969 33.534 11.9219 33.859 12.3232 33.859H19.1041C19.5054 33.859 19.8299 33.534 19.8299 33.1327V22.6039C19.8299 22.2026 19.5049 21.8782 19.1041 21.8782ZM29.6771 0.141357H22.8961C22.4948 0.141357 22.1699 0.466318 22.1699 0.867598V33.1322C22.1699 33.5335 22.4948 33.8585 22.8961 33.8585H29.6771C30.0784 33.8585 30.4033 33.5335 30.4033 33.1322V0.867598C30.4033 0.466318 30.0784 0.141357 29.6771 0.141357ZM40.3043 9.94344H33.5233C33.122 9.94344 32.7971 10.2684 32.7971 10.6697V33.1322C32.7971 33.5335 33.122 33.8585 33.5233 33.8585H40.3038C40.7051 33.8585 41.03 33.5335 41.03 33.1322V10.6697C41.03 10.2689 40.7051 9.94344 40.3043 9.94344ZM8.47693 9.94344H1.69597C1.29469 9.94344 0.969727 10.2684 0.969727 10.6697V33.1322C0.969727 33.5335 1.29469 33.8585 1.69597 33.8585H8.47693C8.87821 33.8585 9.20317 33.5335 9.20317 33.1322V10.6697C9.20317 10.2689 8.87821 9.94344 8.47693 9.94344Z" fill="#18C4B8"/>
</svg>
