<svg width="80" height="80" viewBox="0 0 80 80" fill="none" xmlns="http://www.w3.org/2000/svg">
<g filter="url(#filter0_b_923_1254)">
<rect width="80" height="80" rx="16" fill="#1874C4" fill-opacity="0.15"/>
<path d="M38.1041 44.8782H31.3232C30.9219 44.8782 30.5969 45.2031 30.5969 45.6044V56.1327C30.5969 56.534 30.9219 56.859 31.3232 56.859H38.1041C38.5054 56.859 38.8299 56.534 38.8299 56.1327V45.6039C38.8299 45.2026 38.5049 44.8782 38.1041 44.8782ZM48.6771 23.1414H41.8961C41.4948 23.1414 41.1699 23.4663 41.1699 23.8676V56.1322C41.1699 56.5335 41.4948 56.8585 41.8961 56.8585H48.6771C49.0784 56.8585 49.4033 56.5335 49.4033 56.1322V23.8676C49.4033 23.4663 49.0784 23.1414 48.6771 23.1414ZM59.3043 32.9434H52.5233C52.122 32.9434 51.7971 33.2684 51.7971 33.6697V56.1322C51.7971 56.5335 52.122 56.8585 52.5233 56.8585H59.3038C59.7051 56.8585 60.03 56.5335 60.03 56.1322V33.6697C60.03 33.2689 59.7051 32.9434 59.3043 32.9434ZM27.4769 32.9434H20.696C20.2947 32.9434 19.9697 33.2684 19.9697 33.6697V56.1322C19.9697 56.5335 20.2947 56.8585 20.696 56.8585H27.4769C27.8782 56.8585 28.2032 56.5335 28.2032 56.1322V33.6697C28.2032 33.2689 27.8782 32.9434 27.4769 32.9434Z" fill="#6C68CF"/>
</g>
<defs>
<filter id="filter0_b_923_1254" x="-20" y="-20" width="120" height="120" filterUnits="userSpaceOnUse" color-interpolation-filters="sRGB">
<feFlood flood-opacity="0" result="BackgroundImageFix"/>
<feGaussianBlur in="BackgroundImageFix" stdDeviation="10"/>
<feComposite in2="SourceAlpha" operator="in" result="effect1_backgroundBlur_923_1254"/>
<feBlend mode="normal" in="SourceGraphic" in2="effect1_backgroundBlur_923_1254" result="shape"/>
</filter>
</defs>
</svg>
