<svg width="80" height="80" viewBox="0 0 80 80" fill="none" xmlns="http://www.w3.org/2000/svg">
<rect width="80" height="80" fill="#1E1E1E"/>
<path d="M-3082 -1941C-3082 -1942.1 -3081.1 -1943 -3080 -1943H14268C14269.1 -1943 14270 -1942.1 14270 -1941V8135C14270 8136.1 14269.1 8137 14268 8137H-3080C-3081.1 8137 -3082 8136.1 -3082 8135V-1941Z" fill="#444444"/>
<path d="M-3080 -1942H14268V-1944H-3080V-1942ZM14269 -1941V8135H14271V-1941H14269ZM14268 8136H-3080V8138H14268V8136ZM-3081 8135V-1941H-3083V8135H-3081ZM-3080 8136C-3080.55 8136 -3081 8135.55 -3081 8135H-3083C-3083 8136.66 -3081.66 8138 -3080 8138V8136ZM14269 8135C14269 8135.55 14268.6 8136 14268 8136V8138C14269.7 8138 14271 8136.66 14271 8135H14269ZM14268 -1942C14268.6 -1942 14269 -1941.55 14269 -1941H14271C14271 -1942.66 14269.7 -1944 14268 -1944V-1942ZM-3080 -1944C-3081.66 -1944 -3083 -1942.66 -3083 -1941H-3081C-3081 -1941.55 -3080.55 -1942 -3080 -1942V-1944Z" fill="white" fill-opacity="0.1"/>
<g clip-path="url(#clip0_0_1)">
<rect width="1512" height="3717" transform="translate(-177 -1150)" fill="white"/>
<g filter="url(#filter0_d_0_1)">
<rect x="-97" y="-40" width="296" height="296" fill="white"/>
<rect x="-96.5" y="-39.5" width="295" height="295" stroke="#DDDDDD"/>
<circle cx="40" cy="40" r="40" fill="#F3F3F3"/>
<path d="M29.334 47.9974C29.334 46.5829 29.8959 45.2264 30.8961 44.2262C31.8963 43.226 33.2528 42.6641 34.6673 42.6641H45.334C46.7485 42.6641 48.105 43.226 49.1052 44.2262C50.1054 45.2264 50.6673 46.5829 50.6673 47.9974C50.6673 48.7046 50.3864 49.3829 49.8863 49.883C49.3862 50.3831 48.7079 50.6641 48.0007 50.6641H32.0007C31.2934 50.6641 30.6151 50.3831 30.115 49.883C29.6149 49.3829 29.334 48.7046 29.334 47.9974Z" stroke="black" stroke-width="3" stroke-linejoin="round"/>
<path d="M40 37.332C42.2091 37.332 44 35.5412 44 33.332C44 31.1229 42.2091 29.332 40 29.332C37.7909 29.332 36 31.1229 36 33.332C36 35.5412 37.7909 37.332 40 37.332Z" stroke="black" stroke-width="3"/>
</g>
</g>
<defs>
<filter id="filter0_d_0_1" x="-126" y="-69" width="362" height="362" filterUnits="userSpaceOnUse" color-interpolation-filters="sRGB">
<feFlood flood-opacity="0" result="BackgroundImageFix"/>
<feColorMatrix in="SourceAlpha" type="matrix" values="0 0 0 0 0 0 0 0 0 0 0 0 0 0 0 0 0 0 127 0" result="hardAlpha"/>
<feOffset dx="4" dy="4"/>
<feGaussianBlur stdDeviation="16.5"/>
<feComposite in2="hardAlpha" operator="out"/>
<feColorMatrix type="matrix" values="0 0 0 0 0 0 0 0 0 0 0 0 0 0 0 0 0 0 0.05 0"/>
<feBlend mode="normal" in2="BackgroundImageFix" result="effect1_dropShadow_0_1"/>
<feBlend mode="normal" in="SourceGraphic" in2="effect1_dropShadow_0_1" result="shape"/>
</filter>
<clipPath id="clip0_0_1">
<rect width="1512" height="3717" fill="white" transform="translate(-177 -1150)"/>
</clipPath>
</defs>
</svg>
