<svg width="56" height="57" viewBox="0 0 56 57" fill="none" xmlns="http://www.w3.org/2000/svg">
<path d="M44.3337 47.1654H11.667V49.4987C11.667 50.1175 11.4212 50.711 10.9836 51.1486C10.546 51.5862 9.9525 51.832 9.33366 51.832H7.00033C6.38149 51.832 5.78799 51.5862 5.35041 51.1486C4.91282 50.711 4.66699 50.1175 4.66699 49.4987V26.1654L10.4537 12.66C10.8137 11.82 11.4126 11.1043 12.1758 10.6015C12.939 10.0988 13.8331 9.83122 14.747 9.83203H41.2537C42.1668 9.83213 43.0598 10.1001 43.8221 10.6028C44.5845 11.1055 45.1825 11.8208 45.5423 12.66L51.3337 26.1654V49.4987C51.3337 50.1175 51.0878 50.711 50.6502 51.1486C50.2127 51.5862 49.6192 51.832 49.0003 51.832H46.667C46.0482 51.832 45.4547 51.5862 45.0171 51.1486C44.5795 50.711 44.3337 50.1175 44.3337 49.4987V47.1654ZM46.667 30.832H9.33366V42.4987H46.667V30.832ZM9.74433 26.1654H46.2563L41.256 14.4987H14.747L9.74433 26.1654ZM15.167 40.1654C14.2387 40.1654 13.3485 39.7966 12.6921 39.1402C12.0357 38.4839 11.667 37.5936 11.667 36.6654C11.667 35.7371 12.0357 34.8469 12.6921 34.1905C13.3485 33.5341 14.2387 33.1654 15.167 33.1654C16.0952 33.1654 16.9855 33.5341 17.6419 34.1905C18.2982 34.8469 18.667 35.7371 18.667 36.6654C18.667 37.5936 18.2982 38.4839 17.6419 39.1402C16.9855 39.7966 16.0952 40.1654 15.167 40.1654ZM40.8337 40.1654C39.9054 40.1654 39.0152 39.7966 38.3588 39.1402C37.7024 38.4839 37.3337 37.5936 37.3337 36.6654C37.3337 35.7371 37.7024 34.8469 38.3588 34.1905C39.0152 33.5341 39.9054 33.1654 40.8337 33.1654C41.7619 33.1654 42.6522 33.5341 43.3085 34.1905C43.9649 34.8469 44.3337 35.7371 44.3337 36.6654C44.3337 37.5936 43.9649 38.4839 43.3085 39.1402C42.6522 39.7966 41.7619 40.1654 40.8337 40.1654Z" fill="black"/>
</svg>
