<svg width="40" height="40" viewBox="0 0 40 40" fill="none" xmlns="http://www.w3.org/2000/svg">
<path fill-rule="evenodd" clip-rule="evenodd" d="M6 0C4.4087 0 2.88258 0.632141 1.75736 1.75736C0.632141 2.88258 0 4.4087 0 6V8H40V6C40 4.4087 39.3679 2.88258 38.2426 1.75736C37.1174 0.632141 35.5913 0 34 0H6ZM40 12H0V26C0 27.5913 0.632141 29.1174 1.75736 30.2426C2.88258 31.3679 4.4087 32 6 32H34C35.5913 32 37.1174 31.3679 38.2426 30.2426C39.3679 29.1174 40 27.5913 40 26V12ZM12 22C12 21.4696 12.2107 20.9609 12.5858 20.5858C12.9609 20.2107 13.4696 20 14 20H22.828L22.586 19.758C22.2107 19.383 21.9998 18.8742 21.9996 18.3437C21.9994 17.8132 22.21 17.3043 22.585 16.929C22.96 16.5537 23.4688 16.3428 23.9993 16.3426C24.5298 16.3424 25.0387 16.553 25.414 16.928L29.07 20.586C29.4449 20.9611 29.6556 21.4697 29.6556 22C29.6556 22.5303 29.4449 23.0389 29.07 23.414L25.414 27.07C25.2295 27.261 25.0088 27.4134 24.7648 27.5182C24.5208 27.623 24.2584 27.6782 23.9928 27.6805C23.7272 27.6828 23.4639 27.6322 23.2181 27.5316C22.9723 27.4311 22.749 27.2826 22.5612 27.0948C22.3734 26.907 22.2249 26.6837 22.1244 26.4379C22.0238 26.1921 21.9732 25.9288 21.9755 25.6632C21.9778 25.3976 22.033 25.1352 22.1378 24.8912C22.2426 24.6472 22.395 24.4265 22.586 24.242L22.828 24H14C13.4696 24 12.9609 23.7893 12.5858 23.4142C12.2107 23.0391 12 22.5304 12 22Z" fill="#18C4B8"/>
</svg>
