<svg width="80" height="80" viewBox="0 0 80 80" fill="none" xmlns="http://www.w3.org/2000/svg">
<g filter="url(#filter0_b_923_1266)">
<rect width="80" height="80" rx="16" fill="#C4181B" fill-opacity="0.15"/>
<path fill-rule="evenodd" clip-rule="evenodd" d="M26 24C24.4087 24 22.8826 24.6321 21.7574 25.7574C20.6321 26.8826 20 28.4087 20 30V32H60V30C60 28.4087 59.3679 26.8826 58.2426 25.7574C57.1174 24.6321 55.5913 24 54 24H26ZM60 36H20V50C20 51.5913 20.6321 53.1174 21.7574 54.2426C22.8826 55.3679 24.4087 56 26 56H54C55.5913 56 57.1174 55.3679 58.2426 54.2426C59.3679 53.1174 60 51.5913 60 50V36ZM32 46C32 45.4696 32.2107 44.9609 32.5858 44.5858C32.9609 44.2107 33.4696 44 34 44H42.828L42.586 43.758C42.2107 43.383 41.9998 42.8742 41.9996 42.3437C41.9994 41.8132 42.21 41.3043 42.585 40.929C42.96 40.5537 43.4688 40.3428 43.9993 40.3426C44.5298 40.3424 45.0387 40.553 45.414 40.928L49.07 44.586C49.4449 44.9611 49.6556 45.4697 49.6556 46C49.6556 46.5303 49.4449 47.0389 49.07 47.414L45.414 51.07C45.2295 51.261 45.0088 51.4134 44.7648 51.5182C44.5208 51.623 44.2584 51.6782 43.9928 51.6805C43.7272 51.6828 43.4639 51.6322 43.2181 51.5316C42.9723 51.4311 42.749 51.2826 42.5612 51.0948C42.3734 50.907 42.2249 50.6837 42.1244 50.4379C42.0238 50.1921 41.9732 49.9288 41.9755 49.6632C41.9778 49.3976 42.033 49.1352 42.1378 48.8912C42.2426 48.6472 42.395 48.4265 42.586 48.242L42.828 48H34C33.4696 48 32.9609 47.7893 32.5858 47.4142C32.2107 47.0391 32 46.5304 32 46Z" fill="#EB1A52"/>
</g>
<defs>
<filter id="filter0_b_923_1266" x="-20" y="-20" width="120" height="120" filterUnits="userSpaceOnUse" color-interpolation-filters="sRGB">
<feFlood flood-opacity="0" result="BackgroundImageFix"/>
<feGaussianBlur in="BackgroundImageFix" stdDeviation="10"/>
<feComposite in2="SourceAlpha" operator="in" result="effect1_backgroundBlur_923_1266"/>
<feBlend mode="normal" in="SourceGraphic" in2="effect1_backgroundBlur_923_1266" result="shape"/>
</filter>
</defs>
</svg>
