<svg width="192" height="24" viewBox="0 0 192 24" fill="none" xmlns="http://www.w3.org/2000/svg">
<path d="M12 1.5C6.195 1.5 1.5 6.225 1.5 12.06C1.5 17.325 5.34 21.705 10.365 22.5V15.12H7.695V12.06H10.365V9.735C10.365 7.08 11.94 5.625 14.325 5.625C15.48 5.625 16.68 5.835 16.68 5.835V8.43H15.36C14.055 8.43 13.65 9.24 13.65 10.08V12.06H16.56L16.095 15.12H13.65V22.5C18.675 21.705 22.515 17.34 22.515 12.06C22.515 6.225 17.82 1.5 12.015 1.5H12Z" fill="white"/>
<path d="M68 8.75C67.138 8.75 66.3114 9.09241 65.7019 9.7019C65.0924 10.3114 64.75 11.138 64.75 12C64.75 12.862 65.0924 13.6886 65.7019 14.2981C66.3114 14.9076 67.138 15.25 68 15.25C68.862 15.25 69.6886 14.9076 70.2981 14.2981C70.9076 13.6886 71.25 12.862 71.25 12C71.25 11.138 70.9076 10.3114 70.2981 9.7019C69.6886 9.09241 68.862 8.75 68 8.75Z" fill="white"/>
<path fill-rule="evenodd" clip-rule="evenodd" d="M62.7696 3.08202C66.2457 2.69695 69.7536 2.69695 73.2296 3.08202C75.1286 3.29402 76.6596 4.78902 76.8826 6.69502C77.2946 10.2197 77.2946 13.7803 76.8826 17.305C76.6596 19.211 75.1286 20.706 73.2306 20.919C69.7543 21.3042 66.246 21.3042 62.7696 20.919C60.8706 20.706 59.3396 19.211 59.1166 17.306C58.7046 13.781 58.7046 10.22 59.1166 6.69502C59.3396 4.78902 60.8706 3.29402 62.7696 3.08202ZM72.9996 6.00002C72.7344 6.00002 72.4801 6.10537 72.2925 6.29291C72.105 6.48045 71.9996 6.7348 71.9996 7.00002C71.9996 7.26523 72.105 7.51959 72.2925 7.70712C72.4801 7.89466 72.7344 8.00002 72.9996 8.00002C73.2648 8.00002 73.5192 7.89466 73.7067 7.70712C73.8943 7.51959 73.9996 7.26523 73.9996 7.00002C73.9996 6.7348 73.8943 6.48045 73.7067 6.29291C73.5192 6.10537 73.2648 6.00002 72.9996 6.00002ZM63.2496 12C63.2496 10.7402 63.7501 9.53206 64.6409 8.64126C65.5317 7.75046 66.7399 7.25002 67.9996 7.25002C69.2594 7.25002 70.4676 7.75046 71.3584 8.64126C72.2492 9.53206 72.7496 10.7402 72.7496 12C72.7496 13.2598 72.2492 14.468 71.3584 15.3588C70.4676 16.2496 69.2594 16.75 67.9996 16.75C66.7399 16.75 65.5317 16.2496 64.6409 15.3588C63.7501 14.468 63.2496 13.2598 63.2496 12Z" fill="white"/>
<path d="M131 3C131.53 3 132.039 3.21071 132.414 3.58579C132.789 3.96086 133 4.46957 133 5V19C133 19.5304 132.789 20.0391 132.414 20.4142C132.039 20.7893 131.53 21 131 21H117C116.47 21 115.961 20.7893 115.586 20.4142C115.211 20.0391 115 19.5304 115 19V5C115 4.46957 115.211 3.96086 115.586 3.58579C115.961 3.21071 116.47 3 117 3H131ZM130.5 18.5V13.2C130.5 12.3354 130.157 11.5062 129.545 10.8948C128.934 10.2835 128.105 9.94 127.24 9.94C126.39 9.94 125.4 10.46 124.92 11.24V10.13H122.13V18.5H124.92V13.57C124.92 12.8 125.54 12.17 126.31 12.17C126.681 12.17 127.037 12.3175 127.3 12.5801C127.563 12.8426 127.71 13.1987 127.71 13.57V18.5H130.5ZM118.88 8.56C119.326 8.56 119.753 8.383 120.068 8.06794C120.383 7.75288 120.56 7.32556 120.56 6.88C120.56 5.95 119.81 5.19 118.88 5.19C118.432 5.19 118.002 5.36805 117.685 5.68499C117.368 6.00193 117.19 6.43178 117.19 6.88C117.19 7.81 117.95 8.56 118.88 8.56ZM120.27 18.5V10.13H117.5V18.5H120.27Z" fill="white"/>
<path d="M180 22C185.523 22 190 17.523 190 12C190 6.477 185.523 2 180 2C174.477 2 170 6.477 170 12C170 16.006 172.356 19.462 175.758 21.058L178.048 10.292C178.107 10.0362 178.264 9.81367 178.485 9.6725C178.706 9.53132 178.974 9.4828 179.231 9.5374C179.487 9.592 179.712 9.74535 179.857 9.96435C180.002 10.1833 180.055 10.4504 180.004 10.708C179.73 12 179.49 12.5 179.501 13.1C179.518 14.04 179.774 14.542 180.022 14.802C180.275 15.067 180.64 15.21 181.117 15.202C181.604 15.192 182.155 15.021 182.643 14.713C183.592 14.117 184 13.095 184 12C183.999 11.4058 183.866 10.8191 183.611 10.2828C183.355 9.74639 182.983 9.27374 182.521 8.89917C182.06 8.5246 181.521 8.25752 180.944 8.11734C180.366 7.97717 179.765 7.96741 179.183 8.08879C178.601 8.21017 178.054 8.45963 177.581 8.81905C177.107 9.17846 176.72 9.6388 176.447 10.1666C176.174 10.6944 176.022 11.2764 176.002 11.8703C175.982 12.4642 176.095 13.0551 176.332 13.6C176.429 13.8413 176.428 14.1107 176.329 14.3511C176.23 14.5916 176.042 14.7843 175.804 14.8883C175.566 14.9923 175.296 14.9995 175.053 14.9083C174.81 14.8172 174.611 14.6349 174.5 14.4C174.102 13.4869 173.937 12.4891 174.021 11.4966C174.105 10.5041 174.435 9.54806 174.981 8.7148C175.526 7.88153 176.271 7.19724 177.147 6.72365C178.024 6.25006 179.004 6.00208 180 6.00208C180.996 6.00208 181.976 6.25006 182.853 6.72365C183.729 7.19724 184.474 7.88153 185.019 8.7148C185.565 9.54806 185.895 10.5041 185.979 11.4966C186.063 12.4891 185.898 13.4869 185.5 14.4C185.132 15.248 184.46 15.934 183.708 16.407C182.953 16.882 182.051 17.186 181.153 17.202C180.334 17.217 179.481 16.99 178.794 16.394L177.66 21.726C178.41 21.906 179.194 22.001 179.999 22.001L180 22Z" fill="white"/>
</svg>
