<svg width="24" height="25" viewBox="0 0 24 25" fill="none" xmlns="http://www.w3.org/2000/svg">
<path d="M10.9202 3.36819C11.0303 3.17935 11.1879 3.02267 11.3774 2.91377C11.5669 2.80487 11.7817 2.74756 12.0002 2.74756C12.2188 2.74756 12.4335 2.80487 12.623 2.91377C12.8125 3.02267 12.9702 3.17935 13.0802 3.36819L15.8752 8.16619L21.3032 9.34219C21.5167 9.38859 21.7144 9.49014 21.8764 9.63673C22.0384 9.78331 22.1592 9.9698 22.2267 10.1776C22.2942 10.3854 22.306 10.6073 22.261 10.8211C22.216 11.0349 22.1157 11.2332 21.9702 11.3962L18.2702 15.5372L18.8302 21.0622C18.8523 21.2798 18.817 21.4993 18.7277 21.6989C18.6384 21.8985 18.4983 22.0712 18.3214 22.1997C18.1444 22.3283 17.9369 22.4082 17.7195 22.4314C17.502 22.4546 17.2823 22.4204 17.0822 22.3322L12.0002 20.0922L6.91823 22.3322C6.71815 22.4204 6.49842 22.4546 6.28098 22.4314C6.06355 22.4082 5.85601 22.3283 5.6791 22.1997C5.50219 22.0712 5.36209 21.8985 5.2728 21.6989C5.1835 21.4993 5.14814 21.2798 5.17023 21.0622L5.73023 15.5372L2.03023 11.3972C1.88446 11.2342 1.78398 11.0359 1.73884 10.8219C1.6937 10.608 1.70547 10.3859 1.77297 10.1779C1.84048 9.96997 1.96135 9.78335 2.12354 9.63669C2.28572 9.49004 2.48353 9.38849 2.69723 9.34219L8.12523 8.16619L10.9202 3.36819Z" fill="white"/>
</svg>
