<svg width="32" height="32" viewBox="0 0 32 32" fill="none" xmlns="http://www.w3.org/2000/svg">
<circle cx="16" cy="16" r="16" fill="black"/>
<path d="M19.7793 11.916C19.7793 12.5736 19.6426 13.1432 19.3691 13.625C19.0957 14.1068 18.7246 14.5007 18.2559 14.8066C17.7936 15.1126 17.2728 15.3372 16.6934 15.4805V15.5391C17.8392 15.6823 18.7083 16.0339 19.3008 16.5938C19.8997 17.1536 20.1992 17.9023 20.1992 18.8398C20.1992 19.6732 19.9941 20.4186 19.584 21.0762C19.1803 21.7337 18.5553 22.2513 17.709 22.6289C16.8626 23.0065 15.7721 23.1953 14.4375 23.1953C13.6497 23.1953 12.9141 23.1302 12.2305 23C11.5534 22.8763 10.9154 22.6842 10.3164 22.4238V19.8555C10.9284 20.168 11.5697 20.4056 12.2402 20.5684C12.9108 20.7246 13.5358 20.8027 14.1152 20.8027C15.196 20.8027 15.9512 20.6172 16.3809 20.2461C16.8171 19.8685 17.0352 19.3411 17.0352 18.6641C17.0352 18.2669 16.9342 17.9316 16.7324 17.6582C16.5306 17.3848 16.179 17.1764 15.6777 17.0332C15.1829 16.89 14.4896 16.8184 13.5977 16.8184H12.5137V14.5039H13.6172C14.4961 14.5039 15.1634 14.4225 15.6191 14.2598C16.0814 14.0905 16.3939 13.8626 16.5566 13.5762C16.7259 13.2832 16.8105 12.9512 16.8105 12.5801C16.8105 12.0723 16.6543 11.6751 16.3418 11.3887C16.0293 11.1022 15.5085 10.959 14.7793 10.959C14.3236 10.959 13.9069 11.0176 13.5293 11.1348C13.1582 11.2454 12.8229 11.3822 12.5234 11.5449C12.224 11.7012 11.9603 11.8542 11.7324 12.0039L10.3359 9.92383C10.8958 9.52018 11.5501 9.1849 12.2988 8.91797C13.054 8.65104 13.9525 8.51758 14.9941 8.51758C16.4655 8.51758 17.6309 8.8138 18.4902 9.40625C19.3496 9.9987 19.7793 10.8353 19.7793 11.916Z" fill="white"/>
</svg>
