<svg width="32" height="32" viewBox="0 0 32 32" fill="none" xmlns="http://www.w3.org/2000/svg">
<circle cx="16" cy="16" r="16" fill="black"/>
<path d="M20.3359 23H10.3555V20.9004L13.9395 17.2773C14.6621 16.5352 15.2415 15.9167 15.6777 15.4219C16.1204 14.9206 16.4395 14.4648 16.6348 14.0547C16.8366 13.6445 16.9375 13.2051 16.9375 12.7363C16.9375 12.1699 16.778 11.7467 16.459 11.4668C16.1465 11.1803 15.7266 11.0371 15.1992 11.0371C14.6458 11.0371 14.1087 11.1641 13.5879 11.418C13.0671 11.6719 12.5234 12.0332 11.957 12.502L10.3164 10.5586C10.7266 10.207 11.1595 9.875 11.6152 9.5625C12.0775 9.25 12.6113 8.99935 13.2168 8.81055C13.8288 8.61523 14.5612 8.51758 15.4141 8.51758C16.3516 8.51758 17.1556 8.68685 17.8262 9.02539C18.5033 9.36393 19.0241 9.82617 19.3887 10.4121C19.7533 10.9915 19.9355 11.6491 19.9355 12.3848C19.9355 13.1725 19.7793 13.8919 19.4668 14.543C19.1543 15.194 18.6986 15.8385 18.0996 16.4766C17.5072 17.1146 16.791 17.821 15.9512 18.5957L14.1152 20.3242V20.4609H20.3359V23Z" fill="white"/>
</svg>
