<svg width="32" height="32" viewBox="0 0 32 32" fill="none" xmlns="http://www.w3.org/2000/svg">
<path d="M3.99998 9.33337C2.51998 9.33337 1.33331 10.52 1.33331 12V22.6667H3.99998C3.99998 23.7276 4.42141 24.745 5.17155 25.4951C5.9217 26.2453 6.93911 26.6667 7.99998 26.6667C9.06085 26.6667 10.0783 26.2453 10.8284 25.4951C11.5786 24.745 12 23.7276 12 22.6667H20C20 23.7276 20.4214 24.745 21.1716 25.4951C21.9217 26.2453 22.9391 26.6667 24 26.6667C25.0608 26.6667 26.0783 26.2453 26.8284 25.4951C27.5786 24.745 28 23.7276 28 22.6667H30.6666V17.3334C30.6666 15.8534 29.48 14.6667 28 14.6667L24 9.33337H3.99998ZM20 11.3334H23.3333L25.9466 14.6667H20V11.3334ZM7.99998 20.6667C8.53041 20.6667 9.03912 20.8774 9.41419 21.2525C9.78927 21.6276 9.99998 22.1363 9.99998 22.6667C9.99998 23.1971 9.78927 23.7058 9.41419 24.0809C9.03912 24.456 8.53041 24.6667 7.99998 24.6667C7.46955 24.6667 6.96084 24.456 6.58577 24.0809C6.21069 23.7058 5.99998 23.1971 5.99998 22.6667C5.99998 22.1363 6.21069 21.6276 6.58577 21.2525C6.96084 20.8774 7.46955 20.6667 7.99998 20.6667ZM24 20.6667C24.5304 20.6667 25.0391 20.8774 25.4142 21.2525C25.7893 21.6276 26 22.1363 26 22.6667C26 23.1971 25.7893 23.7058 25.4142 24.0809C25.0391 24.456 24.5304 24.6667 24 24.6667C23.4695 24.6667 22.9608 24.456 22.5858 24.0809C22.2107 23.7058 22 23.1971 22 22.6667C22 22.1363 22.2107 21.6276 22.5858 21.2525C22.9608 20.8774 23.4695 20.6667 24 20.6667Z" fill="black"/>
</svg>
