<svg width="24" height="25" viewBox="0 0 24 25" fill="none" xmlns="http://www.w3.org/2000/svg">
<path d="M10.9202 3.36795C11.0303 3.17911 11.1879 3.02242 11.3774 2.91352C11.5669 2.80462 11.7817 2.74731 12.0002 2.74731C12.2188 2.74731 12.4335 2.80462 12.623 2.91352C12.8125 3.02242 12.9702 3.17911 13.0802 3.36795L15.8752 8.16595L21.3032 9.34195C21.5167 9.38835 21.7144 9.4899 21.8764 9.63648C22.0384 9.78307 22.1592 9.96956 22.2267 10.1774C22.2942 10.3852 22.306 10.6071 22.261 10.8209C22.216 11.0347 22.1157 11.233 21.9702 11.3959L18.2702 15.5369L18.8302 21.062C18.8523 21.2795 18.817 21.4991 18.7277 21.6987C18.6384 21.8983 18.4983 22.071 18.3214 22.1995C18.1444 22.328 17.9369 22.4079 17.7195 22.4312C17.502 22.4544 17.2823 22.4202 17.0822 22.332L12.0002 20.0919L6.91823 22.332C6.71815 22.4202 6.49842 22.4544 6.28098 22.4312C6.06355 22.4079 5.85601 22.328 5.6791 22.1995C5.50219 22.071 5.36209 21.8983 5.2728 21.6987C5.1835 21.4991 5.14814 21.2795 5.17023 21.062L5.73023 15.5369L2.03023 11.3969C1.88446 11.234 1.78398 11.0356 1.73884 10.8217C1.6937 10.6077 1.70547 10.3857 1.77297 10.1777C1.84048 9.96973 1.96135 9.7831 2.12354 9.63645C2.28572 9.48979 2.48353 9.38825 2.69723 9.34195L8.12523 8.16595L10.9202 3.36795Z" fill="#E5DF37"/>
</svg>
